<?xml version="1.0" encoding="utf-8"?>
<!-- Generator: Adobe Illustrator 13.0.0, SVG Export Plug-In . SVG Version: 6.00 Build 14948)  -->
<!DOCTYPE svg PUBLIC "-//W3C//DTD SVG 1.1//EN" "http://www.w3.org/Graphics/SVG/1.1/DTD/svg11.dtd">
<svg version="1.1" id="Nav" xmlns="http://www.w3.org/2000/svg" xmlns:xlink="http://www.w3.org/1999/xlink" x="0px" y="0px"
	 width="160px" height="60px" viewBox="0 0 160 60" enable-background="new 0 0 160 60" xml:space="preserve">
<g>
</g>
<path fill="none" stroke="#000000" stroke-width="0.75" d="M81.379,12.47c0,2.761-2.238,5-5,5h-5c-2.762,0-5-2.239-5-5v-5
	c0-2.761,2.238-5,5-5h5c2.762,0,5,2.239,5,5V12.47z"/>
<polyline points="71.789,10.969 73.794,7.905 75.8,10.969 "/>
<path fill="none" stroke="#000000" stroke-width="0.75" d="M89.635,35.264c-2.762,0-5-2.238-5-5v-5c0-2.762,2.238-5,5-5h5
	c2.762,0,5,2.238,5,5v5c0,2.762-2.238,5-5,5H89.635z"/>
<polyline points="91.099,26.059 94.162,28.064 91.099,30.07 "/>
<path fill="none" stroke="#000000" stroke-width="0.75" d="M58.638,20.336c2.762,0,5,2.238,5,5v5c0,2.762-2.238,5-5,5h-5
	c-2.762,0-5-2.238-5-5v-5c0-2.762,2.238-5,5-5H58.638z"/>
<polyline points="56.947,29.814 53.884,27.809 56.947,25.803 "/>
<path fill="none" stroke="#000000" stroke-width="0.75" d="M66.457,25.426c0-2.761,2.238-5,5-5h5c2.762,0,5,2.239,5,5v5
	c0,2.762-2.238,5-5,5h-5c-2.762,0-5-2.238-5-5V25.426z"/>
<polyline points="75.991,26.969 73.984,30.033 71.979,26.969 "/>
</svg>
